<svg width="1200" height="720" viewBox="0 0 1200 720" fill="none" xmlns="http://www.w3.org/2000/svg">
  <rect width="1200" height="720" fill="#090909"/>
  <rect x="80" y="70" width="1040" height="580" rx="34" fill="#141414" stroke="#2B2B2B" stroke-width="2"/>
  <rect x="126" y="118" width="948" height="484" rx="26" fill="#050505"/>
  <circle cx="600" cy="342" r="118" fill="#FF8A00"/>
  <circle cx="600" cy="342" r="82" fill="#0B0B0B"/>
  <path d="M571 292L656 342L571 392V292Z" fill="#FF8A00"/>
  <path d="M445 342C445 256.4 514.4 187 600 187C685.6 187 755 256.4 755 342" stroke="#FF8A00" stroke-width="18" stroke-linecap="round"/>
  <path d="M390 342C390 226 484 132 600 132C716 132 810 226 810 342" stroke="#FF8A00" stroke-opacity="0.45" stroke-width="14" stroke-linecap="round"/>
  <path d="M330 342C330 192.9 450.9 72 600 72C749.1 72 870 192.9 870 342" stroke="#FF8A00" stroke-opacity="0.18" stroke-width="12" stroke-linecap="round"/>
  <rect x="482" y="477" width="236" height="54" rx="27" fill="#FF8A00"/>
  <circle cx="523" cy="504" r="9" fill="#070707"/>
  <text x="548" y="514" fill="#070707" font-family="Arial, Helvetica, sans-serif" font-size="24" font-weight="800">LIVE SOON</text>
  <rect x="170" y="166" width="170" height="18" rx="9" fill="#FFFFFF" fill-opacity="0.14"/>
  <rect x="170" y="202" width="250" height="14" rx="7" fill="#FFFFFF" fill-opacity="0.08"/>
  <rect x="780" y="174" width="250" height="18" rx="9" fill="#FFFFFF" fill-opacity="0.1"/>
  <rect x="830" y="210" width="200" height="14" rx="7" fill="#FFFFFF" fill-opacity="0.07"/>
  <circle cx="194" cy="532" r="18" fill="#FF8A00" fill-opacity="0.85"/>
  <rect x="230" y="516" width="230" height="16" rx="8" fill="#FFFFFF" fill-opacity="0.12"/>
  <rect x="230" y="546" width="160" height="12" rx="6" fill="#FFFFFF" fill-opacity="0.08"/>
  <circle cx="1006" cy="532" r="18" fill="#FF8A00" fill-opacity="0.85"/>
  <rect x="742" y="516" width="230" height="16" rx="8" fill="#FFFFFF" fill-opacity="0.12"/>
  <rect x="812" y="546" width="160" height="12" rx="6" fill="#FFFFFF" fill-opacity="0.08"/>
</svg>
